<?xml version="1.0" encoding="utf-8"?>
<!-- Generator: Adobe Illustrator 25.0.0, SVG Export Plug-In . SVG Version: 6.00 Build 0)  -->
<svg version="1.1" id="Layer_1" xmlns="http://www.w3.org/2000/svg" xmlns:xlink="http://www.w3.org/1999/xlink" x="0px" y="0px"
	 viewBox="0 0 788 444" style="enable-background:new 0 0 788 444;" xml:space="preserve">
<style type="text/css">
	.st0{fill:#FFFFFF;}
</style>
<path class="st0" d="M618,104.6H169.9c-17.4,0-31.6,14.2-31.6,31.6v168.3c0,17.5,14.2,31.6,31.6,31.6h53.6v3.4H296v-3.4h26.4v3.4
	h40.3v-3.4H618c17.5,0,31.7-14.2,31.7-31.6V136.1C649.7,118.8,635.5,104.6,618,104.6z M172.4,331.5c-8.7-2.9-15-11-15-20.6v-181
	c0-9.6,6.3-17.7,15-20.6h438.8c8.7,2.9,15,11,15,20.6v180.9c0,9.6-6.3,17.8-15,20.6L172.4,331.5L172.4,331.5z M143,304.5V136.1
	c0-13.6,10.1-24.8,23.2-26.6c-6.7,4.3-11.2,11.8-11.2,20.3v180.9c0,8.5,4.5,16,11.2,20.3C153.1,329.2,143,318.1,143,304.5z
	 M644.9,304.5c0,14.9-12.1,26.9-26.9,26.9h-1.2c7-4.2,11.7-11.9,11.7-20.6V129.9c0-8.8-4.7-16.4-11.7-20.6h1.2
	c14.8,0,26.9,12.1,26.9,26.9V304.5L644.9,304.5z"/>
</svg>
