<?xml version="1.0" encoding="utf-8"?>
<!-- Generator: Adobe Illustrator 25.0.0, SVG Export Plug-In . SVG Version: 6.00 Build 0)  -->
<svg version="1.1" id="Layer_1" xmlns="http://www.w3.org/2000/svg" xmlns:xlink="http://www.w3.org/1999/xlink" x="0px" y="0px"
	 viewBox="0 0 788 444" style="enable-background:new 0 0 788 444;" xml:space="preserve">
<style type="text/css">
	.st0{fill:#FFFFFF;}
	.st1{fill:#FFFFFF;stroke:#FFFFFF;stroke-width:0.25;stroke-miterlimit:10;}
	.st2{fill:none;stroke:#FFFFFF;stroke-width:2;stroke-miterlimit:10;}
</style>
<g>
	<path class="st0" d="M392,91.2v-28l-12.4,12.3l-3.3-3.3L391,57.5l-14.6-14.7l3.3-3.3L392,51.9v-28l19.6,19.6l-14,14l14,14L392,91.2
		z M396.8,63.2v16.7l8.3-8.3L396.8,63.2z M396.8,35.2v16.7l8.3-8.3L396.8,35.2z"/>
	<g>
		<g>
			<g>
				<path class="st1" d="M226.6,419.9c-3.5,0-15.1-3.5-26.7-13.2c-11.5-9.6-17.1-32.1-17.5-50.1c-0.4-16.5,3.8-48.6,12.5-78
					c7.4-25.1,16.9-51.8,22.5-67.7l2.1-6.1c4.6-13.2,13.2-33,13.3-33.2l0,0c1.4-3.2,7.9-10.5,10.1-12.2l2.1-1.4
					c0.6-1.4,4.1-8.9,4.6-9.9c0.5-1.2,7.4-8.8,27.6-16c19.4-7,32.2-8.2,35.6-8.1c0.8-0.2,4.4-0.7,9.7,2.1c1.5,0.8,2.9,1.5,4.3,2.3
					c3.6,1.9,6.9,3.7,8.1,3.8c1.5,0.1,77.7,0,117.7,0h0.3c0.4-0.1,1.6-0.4,4.9-2.2c0.6-0.3,1.2-0.7,1.8-1c4.2-2.5,8.6-5.1,15.3-5.1
					h0.1c7.8,0,33.8,5.7,46.7,12.5c11.6,6.1,13.1,7.9,14.6,9.8c0.2,0.2,0.4,0.5,0.7,0.8c1.9,2.1,4.9,9.5,5.5,10.9
					c1.4,1.1,9.8,8.4,12.9,14.5c3.1,6.1,19.7,48.9,28.1,74.8c10.1,31.3,16.9,58.5,20.2,81c3.5,23.8,2.3,43.3-3.5,59.7
					c-5.1,14.4-15.2,21.5-24.3,27.1c-8.3,5.1-13.2,5.3-15.3,4.9c-0.4-0.1-10.4-2-31.7-29c-6.1-7.8-10.6-13.5-14.1-18.1
					c-7.8-10-11-14.1-17.1-20.6c-8.7-9.2-16.2-14.2-30.8-14.3c-11.9-0.1-93.7,0-128.6,0h-17.1c-10.9,0-21.4,4.8-29.7,13.4
					c-9.6,10-25.4,30.9-31.8,39.4c-8.8,11.8-12.2,15.1-16.6,19.1c-4.2,3.9-12.7,10-15.9,10.3C226.8,419.9,226.7,419.9,226.6,419.9z
					 M234.5,172.3c-0.2,0.4-8.6,20-13.2,33.1l-2.1,6.1c-5.6,15.9-15.1,42.6-22.5,67.6c-8.6,29.2-12.8,61.1-12.4,77.5
					c0.4,17.1,5.8,39.6,16.8,48.8c11.5,9.5,23.1,13,25.8,12.8c2.3-0.2,10.3-5.4,14.9-9.8c4.2-4,7.6-7.2,16.4-18.9
					c6.4-8.5,22.3-29.5,31.9-39.5c8.6-9,19.6-13.9,31-13.9h17.1c34.9,0,116.7-0.1,128.7,0c15.2,0.1,23,5.3,32,14.9
					c6.2,6.5,9.4,10.7,17.2,20.7c3.5,4.5,8,10.3,14.1,18.1c20.6,26.1,30.5,28.4,30.6,28.4c1.5,0.2,6,0.3,14.1-4.7
					c9.2-5.6,18.6-12.3,23.6-26.2c5.8-16.1,6.9-35.4,3.5-58.9c-3.3-22.4-10-49.6-20.2-80.7c-8.4-25.8-24.8-68.5-28-74.6
					c-3.2-6.2-12.5-14-12.6-14.1l-0.2-0.1l-0.1-0.2c-0.9-2.4-3.7-8.9-5.2-10.6c-0.3-0.3-0.5-0.6-0.7-0.8c-1.5-1.8-2.8-3.4-14.1-9.4
					c-12.7-6.7-38.2-12.3-45.9-12.3h-0.1c-6.2,0-10.2,2.3-14.4,4.8c-0.6,0.4-1.2,0.7-1.8,1c-4.2,2.4-5.6,2.6-6.2,2.4
					c-6.6,0-115.8,0.1-117.7,0c-1.5-0.1-4.2-1.5-8.8-4c-1.4-0.7-2.8-1.5-4.2-2.3c-5.2-2.7-8.6-1.9-8.6-1.9h-0.1H313
					c-3-0.1-15.8,1.1-35,8c-19.2,6.9-26,14-26.6,15.1c-0.5,1.1-4.7,10.1-4.7,10.1l-0.1,0.2l-2.4,1.7
					C241.8,162.5,235.7,169.5,234.5,172.3z"/>
			</g>
			<g>
				<path class="st1" d="M362.6,215c-5.3,0-9.6-4.3-9.6-9.6s4.3-9.6,9.6-9.6s9.6,4.3,9.6,9.6C372.2,210.7,367.9,215,362.6,215z
					 M362.6,197.5c-4.4,0-7.9,3.6-7.9,7.9c0,4.4,3.5,7.9,7.9,7.9s7.9-3.5,7.9-7.9S366.9,197.5,362.6,197.5z"/>
			</g>
			<g>
				<path class="st1" d="M425.2,215c-5.3,0-9.6-4.3-9.6-9.6s4.3-9.6,9.6-9.6s9.6,4.3,9.6,9.6C434.9,210.7,430.5,215,425.2,215z
					 M425.2,197.5c-4.4,0-7.9,3.6-7.9,7.9c0,4.4,3.5,7.9,7.9,7.9s7.9-3.5,7.9-7.9C433.1,201,429.6,197.5,425.2,197.5z"/>
			</g>
			<g>
				<path class="st1" d="M475.7,220.9c-0.2,0-0.4,0-0.5,0c-8.5-0.3-15.4-7.4-15.4-15.7c0-4.1,1.6-7.8,4.5-10.6s6.8-4.3,10.9-4.1
					c8.5,0.3,15.4,7.4,15.4,15.7c0,4.1-1.6,7.8-4.5,10.6C483.3,219.4,479.6,220.9,475.7,220.9z M474.7,192.1c-3.5,0-6.7,1.3-9.2,3.7
					s-3.9,5.8-3.9,9.4c0,7.5,6.1,13.8,13.7,14c3.7,0.1,7.1-1.2,9.7-3.7c2.5-2.4,3.9-5.8,3.9-9.4c0-7.5-6.1-13.8-13.7-14
					C475,192.1,474.8,192.1,474.7,192.1z"/>
			</g>
			<g>
				<path class="st1" d="M505.1,193.1c-0.2,0-0.4,0-0.5,0c-8.5-0.3-15.4-7.4-15.4-15.7c0-4.1,1.6-7.8,4.5-10.6s6.8-4.3,10.9-4.2
					c8.5,0.3,15.4,7.4,15.4,15.7c0,4.1-1.6,7.8-4.5,10.6C512.7,191.7,509,193.1,505.1,193.1z M504.1,164.3c-3.5,0-6.7,1.3-9.2,3.7
					s-3.9,5.8-3.9,9.4c0,7.5,6.1,13.8,13.7,14c3.7,0.1,7.1-1.2,9.7-3.7c2.5-2.4,3.9-5.8,3.9-9.4c0-7.5-6.1-13.8-13.7-14
					C504.4,164.3,504.2,164.3,504.1,164.3z"/>
			</g>
			<g>
				<path class="st1" d="M504.5,249.8c-0.2,0-0.4,0-0.5,0c-8.5-0.3-15.4-7.4-15.4-15.7c0-4.1,1.6-7.8,4.5-10.6s6.8-4.3,11-4.2
					c8.5,0.3,15.3,7.4,15.3,15.7c0,4.1-1.6,7.8-4.5,10.6C512.1,248.3,508.4,249.8,504.5,249.8z M503.5,221c-3.5,0-6.7,1.3-9.2,3.7
					s-3.9,5.8-3.9,9.4c0,7.5,6.1,13.8,13.7,14c3.7,0.1,7.1-1.2,9.7-3.7c2.5-2.4,3.9-5.8,3.9-9.4c0-7.5-6.1-13.8-13.7-14
					C503.8,221,503.6,221,503.5,221z"/>
			</g>
			<g>
				<path class="st1" d="M533.6,222.2c-0.2,0-0.3,0-0.5,0c-8.3-0.3-15.1-7.3-15.1-15.6c0-4,1.6-7.8,4.4-10.5
					c2.9-2.8,6.6-4.2,10.7-4.1c8.3,0.3,15.1,7.3,15.1,15.6c0,4-1.6,7.8-4.4,10.5C541.1,220.8,537.5,222.2,533.6,222.2z M532.6,193.8
					c-3.4,0-6.6,1.3-9,3.6c-2.5,2.4-3.9,5.7-3.9,9.3c0,7.4,6,13.6,13.4,13.9c3.6,0.1,7-1.2,9.5-3.6c2.5-2.4,3.9-5.7,3.9-9.3
					c0-7.4-6-13.6-13.4-13.9C532.9,193.8,532.8,193.8,532.6,193.8z"/>
			</g>
			<g>
				<g>
					<path class="st1" d="M284.6,234.9c-17.1,0-31-13.4-31-30s13.9-30,31-30s31,13.4,31,30S301.7,234.9,284.6,234.9z M284.6,175.9
						c-16.6,0-30.1,13.1-30.1,29.1s13.5,29.1,30.1,29.1s30.1-13.1,30.1-29.1C314.8,188.9,301.2,175.9,284.6,175.9z"/>
				</g>
				<g>
					<path class="st1" d="M284.6,228.5c-13.4,0-24.3-10.5-24.3-23.5s10.9-23.5,24.3-23.5s24.3,10.5,24.3,23.5
						C308.9,217.9,298,228.5,284.6,228.5z M284.6,183.3c-12.4,0-22.5,9.8-22.5,21.7c0,12,10.1,21.7,22.5,21.7s22.5-9.8,22.5-21.7
						S297,183.3,284.6,183.3z"/>
				</g>
			</g>
			<g>
				<g>
					<path class="st1" d="M450.3,301c-17,0-30.9-13.9-30.9-30.9s13.9-30.9,30.9-30.9s30.9,13.9,30.9,30.9S467.4,301,450.3,301z
						 M450.3,240.1c-16.5,0-30,13.5-30,30c0,16.5,13.5,30,30,30s30-13.5,30-30S466.9,240.1,450.3,240.1z"/>
				</g>
				<g>
					<path class="st1" d="M450.3,294.3c-13.3,0-24.2-10.9-24.2-24.2s10.9-24.2,24.2-24.2s24.2,10.9,24.2,24.2
						S463.6,294.3,450.3,294.3z M450.3,247.7c-12.4,0-22.4,10.1-22.4,22.4c0,12.4,10.1,22.4,22.4,22.4s22.4-10.1,22.4-22.4
						C472.8,257.7,462.7,247.7,450.3,247.7z"/>
				</g>
			</g>
			<g>
				<path class="st1" d="M337.9,311.4c-20.3,0-36.8-16.3-36.8-36.4c0-20.1,16.5-36.4,36.8-36.4s36.8,16.3,36.8,36.4
					C374.6,295.1,358.1,311.4,337.9,311.4z M337.9,239.5c-19.8,0-35.9,15.9-35.9,35.5c0,19.6,16.1,35.5,35.9,35.5
					s35.9-15.9,35.9-35.5C373.8,255.4,357.7,239.5,337.9,239.5z"/>
			</g>
			<g>
				<path class="st1" d="M337.4,309.4c-8.1,0-12-1.9-12-5.8v-16.1h-16.1c-3.9,0-5.8-3.9-5.8-12c0-5.5,0.5-12.9,5.3-12.9h16.6v-16.1
					c0-3.9,3.9-5.8,12-5.8c5.5,0,12.9,0.6,12.9,5.3v16.6h16.6c4.8,0,5.3,7.4,5.3,12.9c0,8.1-1.9,12-5.8,12h-16.1v16.6
					C350.3,308.9,342.9,309.4,337.4,309.4z M308.8,264.3c-2.4,0-3.6,3.8-3.6,11.2c0,6.8,1.4,10.3,4,10.3h17.9v17.9
					c0,2.7,3.5,4,10.3,4c7.4,0,11.2-1.2,11.2-3.6v-18.3h17.8c2.7,0,4-3.5,4-10.3c0-7.4-1.2-11.2-3.6-11.2h-18.3V246
					c0-2.4-3.8-3.6-11.2-3.6c-6.8,0-10.3,1.4-10.3,4v17.9H308.8L308.8,264.3z"/>
			</g>
			<g>
				<path class="st1" d="M246.3,159.2l-1-1.4c1-0.7,6.5-4.5,21.3-11.1c17-7.6,37.1-11.3,47.4-10.9c5.5,0.2,8.8,1.5,11.4,2.6
					c2,0.8,3.7,1.5,5.9,1.5h121.9c3,0,6,0,13.5-2.5c8-2.6,11.9-2.5,22.4-0.5c13.5,2.5,25.4,6.4,36.5,11.7c13.2,6.4,16.7,9,16.8,9.1
					l-1,1.4c0,0-3.6-2.6-16.5-8.9c-10.9-5.3-22.7-9.1-36-11.6c-10.1-1.9-13.9-2.1-21.5,0.4c-7.8,2.6-11.1,2.5-13.9,2.6h-122
					c-2.6,0-4.4-0.7-6.5-1.6c-2.6-1.1-5.5-2.2-10.8-2.4c-10-0.4-29.8,3.3-46.6,10.8C252.6,154.8,247.2,158.5,246.3,159.2z"/>
			</g>
			<g>
				<path class="st1" d="M561.1,419.3c-0.1-0.1-9.6-15.4-22.3-28.8c-13.4-14.2-41.2-42.9-50.8-49.4c-9.5-6.5-25.4-6.5-39.3-6.5
					H327.6c-11.2,0-21.2,2.6-29.6,7.8c-7,4.3-15.9,13.7-23,21.3c-1.7,1.8-3.2,3.5-4.6,4.9c-7.1,7.3-26,27.6-32.4,34.8
					c-6.3,7.1-11.6,15.9-11.6,16l-0.8-0.4c0.1-0.1,5.4-9,11.7-16.1c6.4-7.2,25.3-27.5,32.4-34.8c1.4-1.4,2.9-3.1,4.6-4.9
					c7.1-7.6,16-17.1,23.2-21.5c8.6-5.2,18.7-7.9,30.1-7.9h121.1c14.1,0,30.1,0,39.8,6.7c9.6,6.6,37.5,35.3,50.9,49.5
					c12.7,13.5,22.3,28.8,22.4,29L561.1,419.3z"/>
			</g>
			<g>
				<g>
					<g>
						<path class="st0" d="M382.6,151.3L382.6,151.3c-3,2.8-4.9,6.8-4.9,11.1c0,3.6,1.2,6.9,3.4,9.5h0.1v-0.1
							c-1.2-3.7,5.1-12.6,8.4-16.4l0,0c0,0,0,0,0-0.1C384,150.1,382.5,151.3,382.6,151.3"/>
					</g>
					<g>
						<path class="st0" d="M405.4,151.3C405.5,151.3,405.5,151.3,405.4,151.3c3,2.8,4.9,6.8,4.9,11.1c0,3.5-1.2,6.8-3.3,9.4h-0.1
							v-0.1c1.2-3.7-5.1-12.6-8.4-16.3l0,0c0,0,0,0,0-0.1C404,150.1,405.5,151.3,405.4,151.3"/>
					</g>
					<g>
						<path class="st0" d="M394.1,146.8c3.3,0,6,0.9,8.5,2.3v0.1c0,0,0,0-0.1,0c-3.2-0.6-8,2-8.5,2.2l0,0l0,0
							c-1.2-0.7-5.7-2.9-8.5-2.2h-0.1v-0.1C388,147.7,390.8,146.8,394.1,146.8"/>
					</g>
					<g>
						<path class="st0" d="M394.1,159.3L394.1,159.3c5,3.6,13.4,12.4,10.8,14.9l0,0l0,0l0,0c-2.9,2.4-6.7,3.9-10.8,3.9
							c-4.1,0-7.9-1.5-10.8-3.9l0,0l0,0l0,0C380.7,171.7,389.1,162.9,394.1,159.3L394.1,159.3"/>
					</g>
				</g>
				<g>
					<g>
						<path class="st1" d="M349,178.5c-4.8-4.3-10.1-9.4-21.6-21.9c-11.3-12.5-15.6-13.9-23.7-13.9c-0.1,0-0.2,0-0.2,0
							c-9.4,0-22.4,3.7-39.9,11.2c-19.1,8.2-28.5,16.5-28.6,16.6l-0.5-0.5c0.1-0.1,9.5-8.4,28.8-16.7c17.6-7.6,30.8-11.2,40.2-11.2
							c0.1,0,0.2,0,0.2,0c8.4,0.1,12.3,1.2,23.9,14.2c11.2,12.6,16.8,17.9,21.6,22.3c4.4,4,11.3,4.7,11.4,4.8
							C360.6,183.2,353.6,182.6,349,178.5z"/>
					</g>
				</g>
				<g>
					<g>
						<path class="st1" d="M438.5,178.5c4.8-4.3,10.1-9.4,21.6-21.9c11.3-12.5,15.6-13.9,23.7-13.9c0.1,0,0.2,0,0.2,0
							c9.4,0,22.4,3.7,39.9,11.2c19.2,8.2,28.5,16.5,28.6,16.6l0.5-0.5c-0.1-0.1-9.5-8.4-28.8-16.7c-17.6-7.6-30.8-11.2-40.2-11.2
							c-0.1,0-0.2,0-0.2,0c-8.4,0.1-12.3,1.2-23.9,14.2c-11.2,12.6-16.8,17.9-21.6,22.3c-4.4,4-11.3,4.7-11.4,4.8
							C427,183.2,434,182.6,438.5,178.5z"/>
					</g>
				</g>
			</g>
		</g>
		<path class="st2" d="M400,234.1h-8.7c-4.1,0-7.4-3.3-7.4-7.4l0,0c0-4.1,3.3-7.4,7.4-7.4h8.7c4.1,0,7.4,3.3,7.4,7.4l0,0
			C407.4,230.8,404.1,234.1,400,234.1z"/>
	</g>
</g>
</svg>
