<?xml version="1.0" encoding="utf-8"?>
<!-- Generator: Adobe Illustrator 25.0.0, SVG Export Plug-In . SVG Version: 6.00 Build 0)  -->
<svg version="1.1" id="Layer_1" xmlns="http://www.w3.org/2000/svg" xmlns:xlink="http://www.w3.org/1999/xlink" x="0px" y="0px"
	 viewBox="0 0 788 444" style="enable-background:new 0 0 788 444;" xml:space="preserve">
<style type="text/css">
	.st0{fill:none;stroke:#FFFFFF;stroke-width:2;stroke-miterlimit:10;}
</style>
<g>
	<path class="st0" d="M436,108.6c9.8,0,19,1.8,27.6,5.5c8.6,3.7,16.1,8.8,22.6,15.2c6.5,6.4,11.6,13.9,15.2,22.5
		c3.6,8.6,5.5,17.8,5.5,27.7h-14.2c0-7.8-1.5-15.2-4.4-22.1c-3-6.9-7-12.9-12.2-17.9c-5.2-5.1-11.2-9.2-18.1-12.2
		c-6.9-3-14.2-4.5-22-4.5V108.6L436,108.6z M436,66.1c10.4,0,20.5,1.3,30.1,4c9.7,2.7,18.7,6.5,27.1,11.4s16.1,10.9,22.9,17.7
		c6.9,6.9,12.8,14.6,17.7,23c5,8.5,8.8,17.5,11.4,27.1c2.6,9.6,4,19.6,4.1,30.1h-14.2c0-9.1-1.2-17.8-3.5-26.3
		c-2.4-8.4-5.7-16.3-10-23.7c-4.3-7.4-9.5-14.1-15.6-20.2c-6.1-6.1-12.8-11.2-20-15.5c-7.2-4.3-15.1-7.6-23.7-10.1
		c-8.6-2.4-17.4-3.6-26.4-3.6L436,66.1L436,66.1z M450.2,179.5c0-2-0.4-3.8-1.1-5.5s-1.7-3.2-3-4.4c-1.3-1.3-2.8-2.3-4.5-3.1
		c-1.7-0.8-3.6-1.2-5.5-1.1v-14.2c3.9,0,7.6,0.7,11,2.2s6.4,3.5,9.1,6.1c2.7,2.6,4.7,5.6,6.1,9c1.4,3.4,2.1,7.1,2.2,11.1
		L450.2,179.5L450.2,179.5z"/>
	<g>
		<path class="st0" d="M450.2,206.1v157.8H336.7V165.4H409v-14.2h-72.3c-1.9-0.1-3.8,0.3-5.5,1.1c-1.8,0.8-3.3,1.9-4.5,3.1
			s-2.2,2.7-3,4.4c-0.8,1.7-1.1,3.6-1.1,5.5v198.5c-0.1,1.9,0.3,3.8,1.1,5.5c0.8,1.8,1.9,3.3,3.1,4.5s2.7,2.2,4.4,3
			c1.7,0.7,3.5,1.1,5.5,1.1h113.4c1.9,0.1,3.8-0.3,5.5-1.1c1.8-0.8,3.3-1.9,4.5-3.1s2.2-2.7,3-4.4c0.7-1.7,1.1-3.5,1.1-5.5V206.1
			H450.2z"/>
		<rect x="379.3" y="335.6" class="st0" width="28.4" height="14.2"/>
	</g>
</g>
</svg>
